<?xml version="1.0" standalone="no"?><!DOCTYPE svg PUBLIC "-//W3C//DTD SVG 1.1//EN" "http://www.w3.org/Graphics/SVG/1.1/DTD/svg11.dtd"><svg t="1741966080723" class="icon" viewBox="0 0 1024 1024" version="1.1" xmlns="http://www.w3.org/2000/svg" p-id="11871" xmlns:xlink="http://www.w3.org/1999/xlink" width="200" height="200"><path d="M512 85.333333q18.005333 0 30.336 12.330667l298.666667 298.666667Q853.333333 408.661333 853.333333 426.666667q0 18.346667-12.16 30.506666T810.666667 469.333333q-18.005333 0-30.336-12.330666L554.666667 230.997333V896q0 17.664-12.501334 30.165333T512 938.666667t-30.165333-12.501334T469.333333 896V230.997333l-225.664 226.005334Q231.338667 469.333333 213.333333 469.333333q-18.346667 0-30.506666-12.16T170.666667 426.666667q0-18.005333 12.330666-30.336l298.666667-298.666667Q493.994667 85.333333 512 85.333333z" fill="#ffffff" p-id="11872"></path></svg>