<?xml version="1.0" standalone="no"?><!DOCTYPE svg PUBLIC "-//W3C//DTD SVG 1.1//EN" "http://www.w3.org/Graphics/SVG/1.1/DTD/svg11.dtd"><svg t="1742134636631" class="icon" viewBox="0 0 1024 1024" version="1.1" xmlns="http://www.w3.org/2000/svg" p-id="5617" xmlns:xlink="http://www.w3.org/1999/xlink" width="200" height="200"><path d="M220.224 42.688h293.12c18.752 0 34.88 0 48.256 0.896 14.08 0.96 28.16 3.072 42.048 8.832a128 128 0 0 1 69.248 69.248c5.76 13.952 7.872 28.032 8.832 42.048 0.96 13.44 0.96 29.568 0.96 48.256v1.344a42.688 42.688 0 0 1-85.376 0c0-20.48 0-33.664-0.64-43.776a49.472 49.472 0 0 0-2.56-15.168 42.688 42.688 0 0 0-23.104-23.104 49.472 49.472 0 0 0-15.232-2.56c-10.112-0.64-23.296-0.64-43.776-0.64H221.888c-24.64 0-40.512 0-52.608 0.96-11.52 0.96-15.872 2.56-17.984 3.648a42.688 42.688 0 0 0-18.624 18.624c-1.088 2.112-2.688 6.4-3.648 17.984-0.96 12.16-1.024 27.968-1.024 52.608V512c0 20.48 0 33.664 0.704 43.776 0.64 9.728 1.792 13.44 2.56 15.232a42.688 42.688 0 0 0 23.04 23.04c1.792 0.768 5.504 1.92 15.232 2.56 10.112 0.704 23.36 0.704 43.776 0.704a42.688 42.688 0 1 1 0 85.376h-1.344c-18.688 0-34.88 0-48.256-0.896a130.944 130.944 0 0 1-42.048-8.896A128 128 0 0 1 52.48 603.648a130.944 130.944 0 0 1-8.832-42.048c-0.896-13.376-0.896-29.504-0.896-48.256v-293.12c0-22.464 0-41.92 1.28-57.856 1.408-16.896 4.48-33.664 12.672-49.792a128 128 0 0 1 55.936-55.936c16.128-8.256 32.896-11.264 49.792-12.672 16-1.28 35.392-1.28 57.856-1.28z m298.688 298.624h284.864c22.528 0 41.92 0 57.856 1.28 16.896 1.408 33.664 4.48 49.792 12.672a128 128 0 0 1 55.936 55.936c8.256 16.192 11.264 32.96 12.672 49.792 1.28 16 1.28 35.392 1.28 57.92v284.864c0 22.528 0 41.92-1.28 57.856-1.408 16.896-4.48 33.664-12.672 49.792a128 128 0 0 1-55.936 55.936 130.176 130.176 0 0 1-49.792 12.672c-16 1.28-35.328 1.28-57.856 1.28H518.912c-22.528 0-41.92 0-57.92-1.28a130.176 130.176 0 0 1-49.792-12.672 128 128 0 0 1-55.936-55.936 130.304 130.304 0 0 1-12.608-49.792c-1.28-16-1.28-35.328-1.28-57.856V518.912c0-22.528 0-41.92 1.28-57.92 1.344-16.832 4.416-33.6 12.608-49.792a128 128 0 0 1 55.936-55.936c16.192-8.192 32.96-11.264 49.792-12.608 16-1.28 35.392-1.28 57.92-1.28z m-50.944 86.4c-11.584 0.896-15.872 2.56-17.984 3.584a42.688 42.688 0 0 0-18.688 18.688c-1.024 2.112-2.688 6.4-3.584 17.984-1.024 12.096-1.024 27.968-1.024 52.544v281.6c0 24.64 0 40.512 1.024 52.608 0.896 11.584 2.56 15.872 3.584 17.984a42.688 42.688 0 0 0 18.688 18.624c2.112 1.088 6.4 2.688 17.92 3.648 12.16 1.024 28.032 1.024 52.608 1.024h281.6c24.64 0 40.512 0 52.608-1.024 11.52-0.96 15.872-2.56 17.984-3.648a42.688 42.688 0 0 0 18.624-18.56c1.088-2.176 2.688-6.464 3.648-18.048 0.96-12.096 1.024-27.968 1.024-52.608v-281.6c0-24.576 0-40.448-1.024-52.544-0.96-11.584-2.56-15.872-3.648-17.984a42.688 42.688 0 0 0-18.624-18.688c-2.112-1.024-6.4-2.688-17.984-3.584a725.76 725.76 0 0 0-52.608-1.024h-281.6c-24.576 0-40.448 0-52.544 1.024z" fill="#515151" p-id="5618"></path></svg>