<?xml version="1.0" standalone="no"?><!DOCTYPE svg PUBLIC "-//W3C//DTD SVG 1.1//EN" "http://www.w3.org/Graphics/SVG/1.1/DTD/svg11.dtd"><svg t="1741922310797" class="icon" viewBox="0 0 1024 1024" version="1.1" xmlns="http://www.w3.org/2000/svg" p-id="3991" xmlns:xlink="http://www.w3.org/1999/xlink" width="200" height="200"><path d="M635.8528 448a38.4 38.4 0 0 0-76.8 0v281.6a38.4 38.4 0 1 0 76.8 0v-281.6zM422.4 409.6a38.4 38.4 0 0 1 38.4 38.4v281.6a38.4 38.4 0 0 1-76.8 0v-281.6A38.4 38.4 0 0 1 422.4 409.6z" fill="#d81e06" p-id="3992"></path><path d="M437.248 51.2a115.2 115.2 0 0 0-109.2608 78.7456L303.0528 204.8H140.8a38.4 38.4 0 0 0 0 76.8h38.4v576A115.2 115.2 0 0 0 294.4 972.8h435.2a115.2 115.2 0 0 0 115.2-115.2V281.6h38.4a38.4 38.4 0 0 0 0-76.8H716.8l-24.9344-74.8544A115.2 115.2 0 0 0 582.5536 51.2H437.2992zM768 281.6v576a38.4 38.4 0 0 1-38.4 38.4h-435.2a38.4 38.4 0 0 1-38.4-38.4V281.6h512zM635.8528 204.8H384l16.896-50.5344a38.4 38.4 0 0 1 36.352-26.2656h145.3056a38.4 38.4 0 0 1 36.4544 26.2656l16.8448 50.5344z" fill="#d81e06" p-id="3993"></path></svg>