<?xml version="1.0" standalone="no"?><!DOCTYPE svg PUBLIC "-//W3C//DTD SVG 1.1//EN" "http://www.w3.org/Graphics/SVG/1.1/DTD/svg11.dtd"><svg t="1741943188436" class="icon" viewBox="0 0 1024 1024" version="1.1" xmlns="http://www.w3.org/2000/svg" p-id="9641" xmlns:xlink="http://www.w3.org/1999/xlink" width="200" height="200"><path d="M964.693333 303.36h-32.298666v-32.298667A15.061333 15.061333 0 0 0 917.333333 256h-14.762666a15.061333 15.061333 0 0 0-15.061334 15.061333v32.341334h-32.298666a15.061333 15.061333 0 0 0-15.061334 15.061333v14.762667c0 8.32 6.741333 15.061333 15.061334 15.061333h32.298666v32.298667c0 8.32 6.741333 15.061333 15.061334 15.061333h14.762666a15.061333 15.061333 0 0 0 15.061334-15.061333v-32.298667h32.298666a15.061333 15.061333 0 0 0 15.061334-15.061333v-14.762667a15.061333 15.061333 0 0 0-15.061334-15.061333M701.013333 565.461333l-70.229333 70.314667c-14.08 14.08-37.12 14.08-51.2 0l-70.314667-70.314667a36.352 36.352 0 0 1 0-51.2l70.272-70.357333c14.08-14.08 37.12-14.08 51.2 0l70.314667 70.314667c14.08 14.08 14.08 37.12 0 51.242666M269.866667 641.28a102.314667 102.314667 0 0 1-102.229334-102.229333 102.314667 102.314667 0 0 1 102.229334-102.229334 102.314667 102.314667 0 0 1 102.186666 102.229334 102.314667 102.314667 0 0 1-102.186666 102.229333m335.274666-328.704a226.56 226.56 0 0 0-167.253333 73.685333 226.602667 226.602667 0 0 0-168.021333-74.453333A227.498667 227.498667 0 0 0 42.666667 539.050667a227.498667 227.498667 0 0 0 227.2 227.285333 226.56 226.56 0 0 0 167.253333-73.728 226.602667 226.602667 0 0 0 168.021333 74.496 227.498667 227.498667 0 0 0 227.2-227.242667 227.498667 227.498667 0 0 0-227.2-227.285333" fill="#3F84FA" p-id="9642"></path></svg>