<?xml version="1.0" standalone="no"?><!DOCTYPE svg PUBLIC "-//W3C//DTD SVG 1.1//EN" "http://www.w3.org/Graphics/SVG/1.1/DTD/svg11.dtd"><svg t="1741965993856" class="icon" viewBox="0 0 1024 1024" version="1.1" xmlns="http://www.w3.org/2000/svg" p-id="9990" xmlns:xlink="http://www.w3.org/1999/xlink" width="200" height="200"><path d="M782.222222 241.777778A42.666667 42.666667 0 0 0 739.555556 284.444444v384c0 117.646222-95.687111 213.333333-213.333334 213.333334S312.888889 786.090667 312.888889 668.444444v-398.222222c0-70.599111 57.400889-128 128-128S568.888889 199.623111 568.888889 270.222222v398.222222a42.666667 42.666667 0 0 1-85.333333 0V284.444444A42.666667 42.666667 0 0 0 398.222222 284.444444v384C398.222222 739.043556 455.623111 796.444444 526.222222 796.444444s128-57.400889 128-128v-398.222222C654.222222 152.576 558.535111 56.888889 440.888889 56.888889S227.555556 152.576 227.555556 270.222222v398.222222C227.555556 833.137778 361.528889 967.111111 526.222222 967.111111s298.666667-133.973333 298.666667-298.666667V284.444444a42.666667 42.666667 0 0 0-42.666667-42.666666z" fill="#515151" p-id="9991"></path></svg>