<?xml version="1.0" standalone="no"?><!DOCTYPE svg PUBLIC "-//W3C//DTD SVG 1.1//EN" "http://www.w3.org/Graphics/SVG/1.1/DTD/svg11.dtd"><svg t="1741947497025" class="icon" viewBox="0 0 1024 1024" version="1.1" xmlns="http://www.w3.org/2000/svg" p-id="2389" xmlns:xlink="http://www.w3.org/1999/xlink" width="200" height="200"><path d="M512.250137 0c-282.359971 0-511.257578 207.438768-511.257578 463.32718 0 182.98428 117.05402 341.185548 287.000233 416.482206L287.992792 992.046401c0 11.408433 6.082168 21.951124 15.957827 27.661831 4.947815 2.860846 10.470795 4.291768 15.995772 4.291768 5.503009 0 11.006018-1.419938 15.939853-4.259814l162.041691-93.269559c4.758091 0.118827 9.531159 0.183733 14.321203 0.183733 282.359971 0 511.257578-207.438768 511.257578-463.32718S794.610108 0 512.250137 0zM830.848485 743.595189c-41.069361 37.218953-89.001756 66.481459-142.468115 86.975698-48.174044 18.465186-99.010222 29.051812-151.441085 31.577145-8.192104 0.394427-16.423151 0.59913-24.689148 0.59913-10.111317 0-20.169711-0.302561-30.16919-0.892704l-90.150089 51.889649-40.030869 23.04154 0-33.386518 0-62.146754c0-1.732484-0.142793-3.432016-0.408407-5.090608-5.152518-1.77642-10.278075-3.638716-15.372677-5.59188-11.969618-4.588337-23.645663-9.640001-35.045109-15.098075-39.521609-18.921523-75.547294-42.99157-107.422007-71.877623-40.618017-36.810546-72.436811-79.521523-94.571668-126.947653C76.400056 568.052104 64.899756 516.467013 64.899756 463.32718s11.5003-104.723925 34.180365-153.320356c22.134857-47.42613 53.952653-90.137108 94.571668-126.947653 41.069361-37.218953 89.001756-66.481459 142.468115-86.975698C391.821018 74.733476 451.079965 63.907197 512.250137 63.907197s120.429119 10.826279 176.131231 32.177274c53.46536 20.494239 101.398754 49.756746 142.468115 86.975698 40.618017 36.810546 72.436811 79.521523 94.571668 126.947653 22.680065 48.595432 34.180365 100.179524 34.180365 153.320356s-11.5003 104.723925-34.180365 153.319358C903.285296 664.072668 871.4675 706.784644 830.848485 743.595189z" p-id="2390" fill="#515151"></path><path d="M288.075671 448.773315m-63.907197 0a64 64 0 1 0 127.814395 0 64 64 0 1 0-127.814395 0Z" p-id="2391" fill="#515151"></path><path d="M511.708923 448.835225m-63.907197 0a64 64 0 1 0 127.814395 0 64 64 0 1 0-127.814395 0Z" p-id="2392" fill="#515151"></path><path d="M735.426052 448.835225m-63.907197 0a64 64 0 1 0 127.814395 0 64 64 0 1 0-127.814395 0Z" p-id="2393" fill="#515151"></path></svg>