<?xml version="1.0" standalone="no"?><!DOCTYPE svg PUBLIC "-//W3C//DTD SVG 1.1//EN" "http://www.w3.org/Graphics/SVG/1.1/DTD/svg11.dtd"><svg t="1742134751881" class="icon" viewBox="0 0 1024 1024" version="1.1" xmlns="http://www.w3.org/2000/svg" p-id="11390" xmlns:xlink="http://www.w3.org/1999/xlink" width="200" height="200"><path d="M112 512c0-40.96 6.4-81.92 19.2-122.24a397.504 397.504 0 0 1 197.76-233.6 398.72 398.72 0 0 1 305.28-25.6c51.2 16.64 97.28 42.88 136.96 76.8H704c-26.24 0-48 21.76-48 48s21.76 48 48 48h192c26.24 0 48-21.76 48-48V64c0-26.24-21.76-48-48-48s-48 21.76-48 48v83.2c-53.12-49.28-115.2-85.12-184.96-107.52C537.6 0 403.2 10.24 285.44 71.04S80 234.88 39.68 360.96C23.68 410.24 16 460.8 16 512c0 26.24 21.76 48 48 48s48-21.76 48-48zM1002.88 440.96a47.424 47.424 0 0 0-54.4-40.32c-26.24 3.84-44.16 28.16-40.32 54.4 8.96 60.16 3.84 120.32-15.36 179.2a397.504 397.504 0 0 1-197.76 233.6 398.72 398.72 0 0 1-305.28 25.6 396.16 396.16 0 0 1-136.96-76.8H320c26.24 0 48-21.76 48-48s-21.76-48-48-48H128c-26.24 0-48 21.76-48 48v192c0 26.24 21.76 48 48 48s48-21.76 48-48v-83.2c53.12 49.28 115.2 85.12 184.96 107.52 49.92 16 101.12 23.68 151.68 23.68 78.08 0 154.88-18.56 226.56-55.04a491.52 491.52 0 0 0 245.12-289.92c23.04-72.32 29.44-147.2 18.56-222.08z" p-id="11391" fill="#515151"></path></svg>