<?xml version="1.0" standalone="no"?><!DOCTYPE svg PUBLIC "-//W3C//DTD SVG 1.1//EN" "http://www.w3.org/Graphics/SVG/1.1/DTD/svg11.dtd"><svg t="1744700367814" class="icon" viewBox="0 0 1024 1024" version="1.1" xmlns="http://www.w3.org/2000/svg" p-id="5964" xmlns:xlink="http://www.w3.org/1999/xlink" width="200" height="200"><path d="M769.216 697.088L584.128 512l185.088-185.088-72.128-72.128L512 439.872 326.912 254.784 254.784 326.912 439.872 512l-185.088 185.088 72.128 72.128L512 584.128l185.088 185.088 72.128-72.128zM512 0c140.992 0 261.632 50.112 361.792 150.208C973.952 250.368 1024 371.008 1024 512c0 140.992-50.048 261.632-150.208 361.792C773.632 973.888 652.992 1024 512 1024c-140.992 0-261.632-50.112-361.792-150.208C50.048 773.632 0 652.992 0 512c0-140.992 50.048-261.632 150.208-361.792C250.368 50.112 371.008 0 512 0z" fill="#d81e06" p-id="5965"></path></svg>